<svg width="731" height="260" viewBox="0 0 731 260" fill="none" xmlns="http://www.w3.org/2000/svg">
<path d="M11.2 6.32H29.4L61.46 90.74L92.4 6.32H110.74V106H98.28V22.84L67.06 106H55.58L23.8 22.84V106H11.2V6.32ZM169.413 3.94C184.533 3.94 196.293 8.7 204.693 18.22C213.093 27.6467 217.293 40.0133 217.293 55.32C217.293 70.72 213.14 83.4133 204.833 93.4C196.526 103.387 184.766 108.38 169.553 108.38C161.806 108.38 154.853 106.98 148.693 104.18C142.533 101.38 137.493 97.5067 133.573 92.56C129.746 87.6133 126.806 81.9667 124.753 75.62C122.793 69.2733 121.813 62.4133 121.813 55.04C121.813 39.4533 126.106 27.04 134.693 17.8C143.373 8.55999 154.946 3.94 169.413 3.94ZM169.413 15.42C158.306 15.42 149.766 19.34 143.793 27.18C137.913 34.9267 134.973 44.54 134.973 56.02C134.973 68.5267 138.1 78.5133 144.353 85.98C150.7 93.3533 159.146 97.04 169.693 97.04C180.146 97.04 188.5 93.3067 194.753 85.84C201.006 78.3733 204.133 68.4333 204.133 56.02C204.133 43.7 200.96 33.8533 194.613 26.48C188.36 19.1067 179.96 15.42 169.413 15.42ZM228.18 6.32H260.66C277.554 6.32 290.014 10.24 298.04 18.08C306.067 25.92 310.08 38.3333 310.08 55.32C310.08 72.0267 306.347 84.6733 298.88 93.26C291.414 101.753 279.467 106 263.04 106H228.18V6.32ZM241.34 17.66V94.66H261.36C273.867 94.66 282.92 91.6267 288.52 85.56C294.214 79.4 297.06 69.8333 297.06 56.86C297.06 43.2333 294.307 33.2933 288.8 27.04C283.294 20.7867 273.96 17.66 260.8 17.66H241.34ZM390.175 6.32V17.8H334.315V49.02H386.535V60.08H334.315V94.52H390.875V106H321.155V6.32H390.175ZM467.36 94.52V106H401.28V6.32H414.44V94.52H467.36Z" fill="#ECECEC"/>
<path d="M9.74 220.46V222H0.5C0.54 221.213 0.66 220.527 0.86 219.94C1.06 219.353 1.36667 218.827 1.78 218.36C2.20667 217.88 2.62 217.487 3.02 217.18C3.42 216.873 3.98667 216.493 4.72 216.04C5.86667 215.32 6.62 214.78 6.98 214.42C7.72667 213.687 8.1 212.873 8.1 211.98C8.1 211.193 7.84667 210.553 7.34 210.06C6.83333 209.553 6.17333 209.3 5.36 209.3C4.38667 209.3 3.68667 209.64 3.26 210.32C2.84667 210.987 2.62667 211.833 2.6 212.86H0.88V212.48C0.88 211.08 1.29333 209.953 2.12 209.1C2.96 208.247 4.06667 207.82 5.44 207.82C6.78667 207.82 7.86 208.193 8.66 208.94C9.46 209.687 9.86 210.687 9.86 211.94C9.86 212.473 9.76667 212.98 9.58 213.46C9.40667 213.927 9.20667 214.32 8.98 214.64C8.76667 214.96 8.43333 215.3 7.98 215.66C7.54 216.02 7.17333 216.3 6.88 216.5C6.58667 216.687 6.16667 216.947 5.62 217.28C4.52667 217.933 3.8 218.44 3.44 218.8C2.93333 219.307 2.60667 219.86 2.46 220.46H9.74ZM17.0533 207.82C17.9066 207.82 18.6333 207.98 19.2333 208.3C19.8466 208.607 20.3133 208.987 20.6333 209.44C20.9533 209.893 21.2066 210.487 21.3933 211.22C21.5799 211.94 21.6933 212.593 21.7333 213.18C21.7733 213.753 21.7933 214.447 21.7933 215.26C21.7933 216.007 21.7599 216.68 21.6933 217.28C21.6399 217.88 21.5133 218.507 21.3133 219.16C21.1266 219.813 20.8666 220.36 20.5333 220.8C20.1999 221.227 19.7466 221.58 19.1733 221.86C18.5999 222.14 17.9199 222.28 17.1333 222.28C16.3066 222.28 15.5866 222.14 14.9733 221.86C14.3733 221.567 13.9066 221.207 13.5733 220.78C13.2399 220.353 12.9733 219.813 12.7733 219.16C12.5866 218.493 12.4666 217.867 12.4133 217.28C12.3599 216.68 12.3333 215.993 12.3333 215.22C12.3333 214.553 12.3466 213.973 12.3733 213.48C12.4133 212.987 12.4799 212.433 12.5733 211.82C12.6799 211.193 12.8399 210.667 13.0533 210.24C13.2666 209.8 13.5399 209.387 13.8733 209C14.2066 208.613 14.6399 208.32 15.1733 208.12C15.7199 207.92 16.3466 207.82 17.0533 207.82ZM18.1533 209.58C17.8333 209.42 17.4666 209.34 17.0533 209.34C16.6399 209.34 16.2733 209.42 15.9533 209.58C15.6333 209.727 15.3733 209.9 15.1733 210.1C14.9733 210.3 14.7999 210.6 14.6533 211C14.5066 211.387 14.3999 211.713 14.3333 211.98C14.2799 212.247 14.2333 212.633 14.1933 213.14C14.1533 213.633 14.1333 213.987 14.1333 214.2C14.1333 214.4 14.1333 214.74 14.1333 215.22C14.1333 215.687 14.1399 216.073 14.1533 216.38C14.1666 216.687 14.1999 217.087 14.2533 217.58C14.3066 218.073 14.3999 218.487 14.5333 218.82C14.6666 219.14 14.8333 219.467 15.0333 219.8C15.2333 220.12 15.5066 220.367 15.8533 220.54C16.2133 220.7 16.6266 220.78 17.0933 220.78C17.4933 220.78 17.8466 220.707 18.1533 220.56C18.4733 220.413 18.7333 220.24 18.9333 220.04C19.1333 219.84 19.2999 219.56 19.4333 219.2C19.5799 218.827 19.6866 218.507 19.7533 218.24C19.8199 217.96 19.8666 217.593 19.8933 217.14C19.9333 216.673 19.9533 216.333 19.9533 216.12C19.9666 215.893 19.9733 215.567 19.9733 215.14C19.9733 214.673 19.9733 214.34 19.9733 214.14C19.9733 213.94 19.9533 213.593 19.9133 213.1C19.8733 212.607 19.8199 212.227 19.7533 211.96C19.6999 211.693 19.5999 211.367 19.4533 210.98C19.3066 210.593 19.1333 210.3 18.9333 210.1C18.7333 209.9 18.4733 209.727 18.1533 209.58ZM30.1866 207.84V222H28.3266V211.74H24.7666V210.46C25.9132 210.46 26.8199 210.273 27.4866 209.9C28.1666 209.527 28.6199 208.84 28.8466 207.84H30.1866ZM41.6998 207.84V222H39.8398V211.74H36.2798V210.46C37.4265 210.46 38.3332 210.273 38.9998 209.9C39.6798 209.527 40.1332 208.84 40.3598 207.84H41.6998ZM72.0195 215.62V217.26H52.0195V215.62H72.0195ZM88.1259 220.46V222H78.8859C78.9259 221.213 79.0459 220.527 79.2459 219.94C79.4459 219.353 79.7526 218.827 80.1659 218.36C80.5926 217.88 81.0059 217.487 81.4059 217.18C81.8059 216.873 82.3726 216.493 83.1059 216.04C84.2526 215.32 85.0059 214.78 85.3659 214.42C86.1126 213.687 86.4859 212.873 86.4859 211.98C86.4859 211.193 86.2326 210.553 85.7259 210.06C85.2193 209.553 84.5593 209.3 83.7459 209.3C82.7726 209.3 82.0726 209.64 81.6459 210.32C81.2326 210.987 81.0126 211.833 80.9859 212.86H79.2659V212.48C79.2659 211.08 79.6793 209.953 80.5059 209.1C81.3459 208.247 82.4526 207.82 83.8259 207.82C85.1726 207.82 86.2459 208.193 87.0459 208.94C87.8459 209.687 88.2459 210.687 88.2459 211.94C88.2459 212.473 88.1526 212.98 87.9659 213.46C87.7926 213.927 87.5926 214.32 87.3659 214.64C87.1526 214.96 86.8193 215.3 86.3659 215.66C85.9259 216.02 85.5593 216.3 85.2659 216.5C84.9726 216.687 84.5526 216.947 84.0059 217.28C82.9126 217.933 82.1859 218.44 81.8259 218.8C81.3193 219.307 80.9926 219.86 80.8459 220.46H88.1259ZM99.6392 220.46V222H90.3992C90.4392 221.213 90.5592 220.527 90.7592 219.94C90.9592 219.353 91.2659 218.827 91.6792 218.36C92.1059 217.88 92.5192 217.487 92.9192 217.18C93.3192 216.873 93.8859 216.493 94.6192 216.04C95.7659 215.32 96.5192 214.78 96.8792 214.42C97.6259 213.687 97.9992 212.873 97.9992 211.98C97.9992 211.193 97.7459 210.553 97.2392 210.06C96.7325 209.553 96.0725 209.3 95.2592 209.3C94.2859 209.3 93.5859 209.64 93.1592 210.32C92.7459 210.987 92.5259 211.833 92.4992 212.86H90.7792V212.48C90.7792 211.08 91.1925 209.953 92.0192 209.1C92.8592 208.247 93.9659 207.82 95.3392 207.82C96.6859 207.82 97.7592 208.193 98.5592 208.94C99.3592 209.687 99.7592 210.687 99.7592 211.94C99.7592 212.473 99.6659 212.98 99.4792 213.46C99.3059 213.927 99.1059 214.32 98.8792 214.64C98.6659 214.96 98.3325 215.3 97.8792 215.66C97.4392 216.02 97.0725 216.3 96.7792 216.5C96.4859 216.687 96.0659 216.947 95.5192 217.28C94.4259 217.933 93.6992 218.44 93.3392 218.8C92.8325 219.307 92.5059 219.86 92.3592 220.46H99.6392ZM105.292 219.78V222H103.072V219.78H105.292Z" fill="#ECECEC"/>
<path d="M233.62 127.32H274.64C284.813 127.32 292.887 129.653 298.86 134.32C304.833 138.893 307.82 146.127 307.82 156.02C307.82 176.087 296.48 186.12 273.8 186.12H246.78V227H233.62V127.32ZM246.78 138.66V175.06H272.12C279.213 175.06 284.72 173.753 288.64 171.14C292.653 168.433 294.66 163.673 294.66 156.86C294.66 153.033 294.007 149.86 292.7 147.34C291.487 144.82 289.667 142.953 287.24 141.74C284.813 140.527 282.293 139.733 279.68 139.36C277.067 138.893 273.94 138.66 270.3 138.66H246.78ZM317.541 127.32H330.841V190.18C330.841 199.887 332.941 206.98 337.141 211.46C341.341 215.94 348.201 218.18 357.721 218.18C367.521 218.18 374.428 215.893 378.441 211.32C382.548 206.747 384.601 199.7 384.601 190.18V127.32H397.901V186.68C397.901 201.24 394.868 211.973 388.801 218.88C382.735 225.693 372.375 229.1 357.721 229.1C343.535 229.1 333.268 225.787 326.921 219.16C320.668 212.44 317.541 202.08 317.541 188.08V127.32ZM413.676 127.32H456.236C465.383 127.32 472.943 129.327 478.916 133.34C484.983 137.353 488.016 143.653 488.016 152.24C488.016 157.187 486.663 161.62 483.956 165.54C481.343 169.367 477.796 172.073 473.316 173.66C479.476 175.06 484.19 177.953 487.456 182.34C490.816 186.727 492.496 192.233 492.496 198.86C492.496 217.62 479.896 227 454.696 227H413.676V127.32ZM426.556 138.52V170.02H450.216C452.923 170.02 455.21 169.973 457.076 169.88C459.036 169.693 461.23 169.32 463.656 168.76C466.083 168.2 467.996 167.407 469.396 166.38C470.89 165.26 472.15 163.673 473.176 161.62C474.296 159.567 474.856 157.093 474.856 154.2C474.856 151.307 474.39 148.88 473.456 146.92C472.523 144.867 471.403 143.327 470.096 142.3C468.79 141.18 466.97 140.34 464.636 139.78C462.396 139.22 460.343 138.893 458.476 138.8C456.703 138.613 454.37 138.52 451.476 138.52H426.556ZM426.556 180.38V215.94H452.876C456.143 215.94 458.803 215.893 460.856 215.8C462.91 215.613 465.196 215.193 467.716 214.54C470.33 213.887 472.383 212.953 473.876 211.74C475.37 210.433 476.63 208.613 477.656 206.28C478.683 203.853 479.196 200.96 479.196 197.6C479.196 194.8 478.823 192.373 478.076 190.32C477.423 188.267 476.256 186.633 474.576 185.42C472.99 184.207 471.45 183.227 469.956 182.48C468.556 181.733 466.503 181.22 463.796 180.94C461.09 180.66 458.99 180.52 457.496 180.52C456.003 180.427 453.716 180.38 450.636 180.38H426.556ZM570.136 215.52V227H504.056V127.32H517.216V215.52H570.136ZM589.829 127.32V227H576.669V127.32H589.829ZM691.16 189.34C690.04 201.94 685.653 211.787 678 218.88C670.44 225.88 660.453 229.38 648.04 229.38C633.853 229.38 622.606 224.713 614.3 215.38C605.993 205.953 601.84 193.26 601.84 177.3C601.84 162.367 605.993 149.953 614.3 140.06C622.7 130.073 634.273 125.08 649.02 125.08C659.566 125.08 668.853 127.927 676.88 133.62C684.906 139.313 689.386 147.2 690.32 157.28H677.16C675.666 150.747 672.4 145.66 667.36 142.02C662.32 138.287 656.113 136.42 648.74 136.42C637.633 136.42 629.233 140.34 623.54 148.18C617.94 156.02 615.14 165.68 615.14 177.16C615.14 189.853 618.126 199.84 624.1 207.12C630.073 214.4 638.24 218.04 648.6 218.04C657.093 218.04 663.86 215.613 668.9 210.76C673.94 205.813 676.973 198.673 678 189.34H691.16ZM718.275 211.46V227H702.735V211.46H718.275Z" fill="#ECECEC"/>
</svg>
